<?xml version="1.0" encoding="utf-8"?>
<!-- Generator: Adobe Illustrator 27.0.1, SVG Export Plug-In . SVG Version: 6.00 Build 0)  -->
<svg version="1.1" xmlns="http://www.w3.org/2000/svg" xmlns:xlink="http://www.w3.org/1999/xlink" x="0px" y="0px"
	 viewBox="0 0 1000 1000" style="enable-background:new 0 0 1000 1000;" xml:space="preserve">
<style type="text/css">
	.st0{fill:#FFFFFF;}
</style>
<g id="Layer_5">
	<path d="M843.1,320.8c-16.5-38-40.2-72.1-70.3-101.4c-61.7-60-143.7-93.1-230.8-93.1S373,159.3,311.3,219.4
		c-30.1,29.3-53.7,63.4-70.3,101.4c-17.1,39.4-25.8,81.3-25.8,124.5s8.7,85.1,25.8,124.5c16.5,38,40.2,72.1,70.3,101.4
		c61.7,60,143.7,93.1,230.8,93.1s169.1-33.1,230.8-93.1c30.1-29.3,53.7-63.4,70.3-101.4c17.1-39.4,25.8-81.3,25.8-124.5
		S860.2,360.2,843.1,320.8z"/>
</g>
<g id="Layer_4">
	<ellipse class="st0" cx="542.1" cy="445.3" rx="290.9" ry="283"/>
</g>
<g id="Layer_3">
	<path d="M613.8,560.9c-2.1-1.3-2.9-2.7-2.9-5.1c0-9.2,11.6-17,25.4-17h75.8l70.5-74.8H658.6c-2.2-12.4-8.8-22.9-19.3-30
		c-0.6-0.4-1.2-0.8-1.8-1.2l59.8-63.4h-140c-2.2-12.3-8.9-22.6-19.2-29.7c-0.6-0.4-1.2-0.8-1.8-1.2l59.8-63.4H433.5
		c-79.2,0-85.4,51.9-85.4,67.8c0,15.8,6,29,17.2,38.3l-64.2,67.7h149.3c2.3,10.6,7.7,19.7,16,26.6l-64.2,67.7h128.3
		c-0.9,5.1-1.4,10.3-1.4,15.6c0,22.4,9.2,42.8,26,57.3c16.4,14.2,38.4,21.7,63.6,21.7h75.8l70.5-74.4H625
		C620.5,563.4,616.4,562.5,613.8,560.9z"/>
</g>
<g id="Layer_2">
	<path class="st0" d="M601,555.8c0-14.9,15.9-27,35.4-27h71.5l51.7-54.8H649.3c0-0.3,0-0.5,0-0.8c0-13.3-5.4-24-15.7-31
		c-5.7-3.9-12.8-6.5-21.2-8h10.1l51.7-54.8h-126c0-0.1,0-0.3,0-0.5c0-13.3-5.4-24-15.7-31c-5.7-3.9-12.8-6.5-21.2-8h10l51.7-54.8
		H433.5c-68.1,0-75.4,40.4-75.4,57.8c0,13.1,5,23.9,14.4,31.3c7.1,5.6,16.6,9,28.3,10.3H376l-51.6,54.4h134.9
		c0.4,12.3,5.4,22.5,14.4,29.5c7.1,5.6,16.6,9,28.3,10.3h-24.8l-51.6,54.4h118.1c-2.9,8.1-4.4,16.7-4.4,25.6
		c0,19.5,8,37.1,22.6,49.7c14.6,12.6,34.3,19.3,57,19.3h71.5l51.6-54.4H625C613.4,573.4,601,568.8,601,555.8z"/>
</g>
<g id="Layer_1">
	<path d="M591,555.8c0-21.2,20.8-37,45.4-37h67.2l32.8-34.8h-93.8c-1.4,0-2.8,0-4.2,0.1c0.6-3.5,1-7.1,1-10.9
		c0-20-15.4-30.4-44.4-30.4h-72.8c-8.6,0-12.8-2.2-12.8-7.6c0-8,4.8-11,16-11h92.8l32.8-34.8H537.3c0.6-3.3,0.9-6.8,0.9-10.5
		c0-20-15.4-30.4-44.4-30.4h-72.8c-8.6,0-12.8-2.2-12.8-7.6c0-8,4.8-11,16-11h92.8l32.8-34.8H433.5c-46.8,0-65.4,20.6-65.4,47.8
		c0,19.4,13.6,32.2,44,32.2h73c8.4,0,12.6,2.6,12.6,8c0,7.8-4.8,11.4-16,11.4H380.3l-32.6,34.4H470c-0.4,2.7-0.6,5.4-0.6,8.3
		c0,19.4,13.6,32.2,44,32.2h73c8.4,0,12.6,2.6,12.6,8c0,7.8-4.8,11.4-16,11.4H481.5l-32.6,34.4h110.9c-6.7,10.4-10.5,22.4-10.5,35.6
		c0,33.8,27.8,59,69.6,59h67.2l32.6-34.4H625C604.8,583.4,591,572.4,591,555.8z"/>
</g>
</svg>
